<?xml version="1.0" encoding="UTF-8"?>
<svg width="44px" height="27px" viewBox="0 0 44 27" version="1.1" xmlns="http://www.w3.org/2000/svg" xmlns:xlink="http://www.w3.org/1999/xlink">
    <!-- Generator: Sketch 41.2 (35397) - http://www.bohemiancoding.com/sketch -->
    <title>02d</title>
    <desc>Created with Sketch.</desc>
    <defs></defs>
    <g id="Page-1" stroke="none" stroke-width="1" fill="none" fill-rule="evenodd" opacity="0.99000001">
        <g id="02d" transform="translate(1.000000, 1.000000)" stroke="#FFFFFF">
            <g id="Cloud-Sun-2">
                <g id="Page-1">
                    <g id="Cloud-Sun-2">
                        <path d="M30.0055031,11.8167316 C28.3832719,6.54813316 23.466439,2.71795903 17.6527706,2.71795903 C11.767587,2.71795903 6.80143879,6.6429445 5.24167176,12.0118109 C2.24946803,12.6278756 0,15.2709651 0,18.4381278 C0,22.0464008 2.91969765,24.974453 6.53105188,24.9998337 L34.359012,25 C36.9727805,25 39.0916583,22.8864387 39.0916583,20.2792286 C39.0916583,17.6720186 36.9727805,15.5584572 34.359012,15.5584572 C34.3333762,13.4683708 32.6269228,11.7818401 30.5255685,11.7818401 C30.3491774,11.7818401 30.1755688,11.7937237 30.0055034,11.8167322 L30.0055031,11.8167316 Z" id="Cloud-2" stroke-width="1.57342657"></path>
                        <path d="M35.6565551,2.07234466 L36.5015608,0.0823586184 M40.4295771,6.82193558 L42.4347299,6.01209532 M40.4367992,13.5460909 L42.4275078,14.3907899 M28.913705,2.07956413 L28.1035707,0.0751391447" id="Line" stroke-width="1.3986014"></path>
                        <path d="M37.8957632,12.1708526 C38.05235,11.6295969 38.1362555,11.0575978 38.1362555,10.4660506 C38.1362555,7.07667755 35.381714,4.32904782 31.9838152,4.32904782 C31.5186742,4.32904782 31.0655895,4.38053584 30.6299761,4.47810987" id="Oval-10" stroke-width="1.57342657"></path>
                    </g>
                </g>
            </g>
        </g>
    </g>
</svg>