<?xml version="1.0" encoding="UTF-8"?>
<svg width="40px" height="26px" viewBox="0 0 40 26" version="1.1" xmlns="http://www.w3.org/2000/svg" xmlns:xlink="http://www.w3.org/1999/xlink">
    <!-- Generator: Sketch 41.2 (35397) - http://www.bohemiancoding.com/sketch -->
    <title>02n</title>
    <desc>Created with Sketch.</desc>
    <defs></defs>
    <g id="Page-1" stroke="none" stroke-width="1" fill="none" fill-rule="evenodd">
        <g id="02n" transform="translate(1.000000, 1.000000)" stroke-width="1.57342657" stroke="#FFFFFF">
            <g id="Cloud-+-Moon">
                <g id="Page-1">
                    <g id="Cloud-+-Moon">
                        <g id="Cloud" opacity="0.99000001" transform="translate(0.000000, 5.577006)">
                            <path d="M24.0364985,7.48682538 C22.7369783,3.19238653 18.7982525,0.0704084674 14.1410991,0.0704084674 C9.42665702,0.0704084674 5.44842632,3.26966733 4.19894426,7.64583473 C1.80198061,8.14798955 0,10.302374 0,12.8839308 C0,15.8250371 2.33888123,18.2116949 5.23182757,18.2323827 L27.5239624,18.2325182 C29.6177731,18.2325182 31.3151418,16.5097527 31.3151418,14.3846136 C31.3151418,12.2594746 29.6177731,10.536709 27.5239624,10.536709 C27.5034263,8.83307786 26.1364383,7.45838533 24.453107,7.45838533 C24.3118055,7.45838533 24.1727329,7.46807169 24.0364987,7.48682587 L24.0364985,7.48682538 Z" id="Cloud-2"></path>
                        </g>
                        <g id="Moon" transform="translate(25.517007, 0.000000)">
                            <path d="M11.3746556,8.2724116 C10.4952541,10.4659852 8.37751145,12.012012 5.9047619,12.012012 C2.64365195,12.012012 0,9.32303153 0,6.00600601 C0,3.05038348 2.09896205,0.593405532 4.86343968,0.0930967576 C4.58306948,0.79245047 4.42857143,1.55762458 4.42857143,2.35950236 C4.42857143,5.67652789 7.07222338,8.36550837 10.3333333,8.36550837 C10.6886441,8.36550837 11.0366251,8.33358758 11.3746556,8.2724116 L11.3746556,8.2724116 Z" id="Oval-31"></path>
                        </g>
                    </g>
                </g>
            </g>
        </g>
    </g>
</svg>