<?xml version="1.0" encoding="UTF-8"?>
<svg width="42px" height="26px" viewBox="0 0 42 26" version="1.1" xmlns="http://www.w3.org/2000/svg" xmlns:xlink="http://www.w3.org/1999/xlink">
    <!-- Generator: Sketch 41.2 (35397) - http://www.bohemiancoding.com/sketch -->
    <title>03n</title>
    <desc>Created with Sketch.</desc>
    <defs></defs>
    <g id="Page-1" stroke="none" stroke-width="1" fill="none" fill-rule="evenodd">
        <g id="03n" transform="translate(1.000000, 1.000000)" stroke-width="1.57342657" stroke="#FFFFFF">
            <g id="Cloud-+-Moon-Copy">
                <g id="Page-1">
                    <g id="Cloud-+-Moon-Copy">
                        <g id="Cloud" opacity="0.99000001" transform="translate(0.000000, 1.057502)">
                            <path d="M29.3873871,9.22764835 C27.798574,3.93467442 22.9830283,0.0867797158 17.289122,0.0867797158 C11.5251736,0.0867797158 6.66132854,4.02992442 5.13369285,9.42363027 C2.20312879,10.0425452 0,12.6978632 0,15.8796789 C0,19.5046459 2.85955162,22.4462449 6.39651163,22.4717431 L33.6512133,22.4719101 C36.2111379,22.4719101 38.2863666,20.3485702 38.2863666,17.7292977 C38.2863666,15.1100252 36.2111379,12.9866854 33.6512133,12.9866854 C33.6261055,10.886929 31.9548053,9.19259548 29.896739,9.19259548 C29.7239816,9.19259548 29.5539494,9.20453409 29.3873873,9.22764896 L29.3873871,9.22764835 Z" id="Cloud-2"></path>
                        </g>
                        <g id="Moon" transform="translate(28.103514, 0.000000)">
                            <path d="M0.19404457,1.78766067 C1.15220904,0.942753383 2.32905433,0.351297436 3.62564137,0.114743446 C3.28285652,0.976709607 3.09396486,1.91980061 3.09396486,2.90812954 C3.09396486,6.99642379 6.32613378,10.3106411 10.3132162,10.3106411 C10.7476245,10.3106411 11.1730713,10.2712982 11.5863525,10.1958977 C11.2539483,11.0317607 10.7768305,11.791338 10.1869133,12.4419051 L10.1869133,12.4419051" id="Oval-31"></path>
                        </g>
                    </g>
                </g>
            </g>
        </g>
    </g>
</svg>