<?xml version="1.0" encoding="UTF-8"?>
<svg width="56px" height="27px" viewBox="0 0 56 27" version="1.1" xmlns="http://www.w3.org/2000/svg" xmlns:xlink="http://www.w3.org/1999/xlink">
    <!-- Generator: Sketch 41.2 (35397) - http://www.bohemiancoding.com/sketch -->
    <title>04d</title>
    <desc>Created with Sketch.</desc>
    <defs></defs>
    <g id="Page-1" stroke="none" stroke-width="1" fill="none" fill-rule="evenodd">
        <g id="04d" transform="translate(1.000000, 1.000000)" stroke-width="1.57342657" stroke="#FFFFFF">
            <g id="Cloudy-2">
                <g id="Page-1">
                    <g id="Cloudy-2">
                        <path d="M31.690818,11.0030049 C29.9774713,5.46373149 24.7844752,1.43678161 18.6442713,1.43678161 C12.4285354,1.43678161 7.18345423,5.56341379 5.53608,11.2081065 C2.37581358,11.8558216 0,14.6347002 0,17.9645763 C0,21.7582248 3.08368788,24.8367061 6.89788055,24.8633908 L36.2888499,24.8635656 C39.0494252,24.8635656 41.2873139,22.6414197 41.2873139,19.9002639 C41.2873139,17.1591081 39.0494252,14.9369622 36.2888499,14.9369622 C36.2617739,12.7394973 34.4594748,10.9663209 32.2400939,10.9663209 C32.0537954,10.9663209 31.8704357,10.978815 31.6908183,11.0030055 L31.690818,11.0030049 Z" id="Cloudy"></path>
                        <path d="M44.9944899,17.768593 L49.545151,17.7686201 C51.6373064,17.7686201 53.3333333,16.0831789 53.3333333,14.0040819 C53.3333333,11.9249849 51.6373064,10.2395438 49.545151,10.2395438 C49.524631,8.5728225 48.1587241,7.22791325 46.4767235,7.22791325 C46.3355336,7.22791325 46.1965707,7.23738974 46.0604443,7.25573761 C44.7619513,3.05433911 40.8263394,0 36.1728675,0 C34.1074974,0 32.1835377,0.601670744 30.5687899,1.63825797" id="Cloudy"></path>
                    </g>
                </g>
            </g>
        </g>
    </g>
</svg>