<?xml version="1.0" encoding="UTF-8"?>
<svg width="30px" height="26px" viewBox="0 0 30 26" version="1.1" xmlns="http://www.w3.org/2000/svg" xmlns:xlink="http://www.w3.org/1999/xlink">
    <!-- Generator: Sketch 41.2 (35397) - http://www.bohemiancoding.com/sketch -->
    <title>04n</title>
    <desc>Created with Sketch.</desc>
    <defs></defs>
    <g id="Page-1" stroke="none" stroke-width="1" fill="none" fill-rule="evenodd">
        <g id="04n" transform="translate(1.000000, 1.000000)" stroke-width="1.57342657" stroke="#FFFFFF">
            <g id="Cloud-+-Light-Rain-+-Moon-Copy-2">
                <g id="Page-1">
                    <g id="Cloud-+-Light-Rain-+-Moon-Copy-2">
                        <g id="Cloud" opacity="0.99000001" transform="translate(0.000000, 11.180124)">
                            <path d="M16.7523098,5.13455736 C15.8466053,2.18937813 13.1014986,0.048286997 9.85568152,0.048286997 C6.56993692,0.048286997 3.79729709,2.24237826 2.92646682,5.24360794 C1.2558958,5.58799192 0,7.06549537 0,8.83595897 C0,10.853006 1.6300903,12.4898054 3.64633794,12.5039934 L19.1829083,12.5040863 C20.6421959,12.5040863 21.8251821,11.3225924 21.8251821,9.86514577 C21.8251821,8.40769916 20.6421959,7.22620524 19.1829083,7.22620524 C19.1685956,6.05783395 18.2158691,5.11505282 17.0426664,5.11505282 C16.9441858,5.11505282 16.8472588,5.12169585 16.75231,5.1345577 L16.7523098,5.13455736 Z" id="Cloud-2"></path>
                        </g>
                        <g id="Moon" transform="translate(17.784155, 0.000000)">
                            <path d="M7.92760036,5.6733221 C7.31469885,7.17770196 5.83873177,8.23798627 4.11534155,8.23798627 C1.84250117,8.23798627 0,6.39385023 0,4.11899314 C0,2.09199069 1.46287791,0.406964847 3.38958889,0.0638469068 C3.19418404,0.543472324 3.08650616,1.06823818 3.08650616,1.61817587 C3.08650616,3.89303297 4.92900733,5.73716901 7.2018477,5.73716901 C7.44948262,5.73716901 7.69200899,5.71527734 7.92760036,5.6733221 L7.92760036,5.6733221 Z" id="Oval-31"></path>
                        </g>
                        <path d="M23.403211,19.9822219 L25.7107096,19.9822357 C26.7715765,19.9822357 27.6315789,19.1194045 27.6315789,18.0550481 C27.6315789,16.9906918 26.7715765,16.1278605 25.7107096,16.1278605 C25.7003046,15.2746126 25.0076957,14.5861105 24.1548055,14.5861105 C24.0832126,14.5861105 24.0127488,14.5909619 23.9437234,14.6003547 C23.285298,12.4495244 21.2896717,10.8859104 18.930041,10.8859104 C17.8827561,10.8859104 16.907176,11.1939249 16.0883876,11.7245871" id="Cloudy"></path>
                    </g>
                </g>
            </g>
        </g>
    </g>
</svg>