<?xml version="1.0" encoding="UTF-8"?>
<svg width="40px" height="26px" viewBox="0 0 40 26" version="1.1" xmlns="http://www.w3.org/2000/svg" xmlns:xlink="http://www.w3.org/1999/xlink">
    <!-- Generator: Sketch 41.2 (35397) - http://www.bohemiancoding.com/sketch -->
    <title>09d</title>
    <desc>Created with Sketch.</desc>
    <defs></defs>
    <g id="Page-1" stroke="none" stroke-width="1" fill="none" fill-rule="evenodd">
        <g id="09d" transform="translate(1.000000, 1.000000)" stroke-width="1.57342657" stroke="#FFFFFF">
            <g id="Cloud-Rain-Wind">
                <g id="Page-1">
                    <g id="Cloud-Rain-Wind">
                        <g id="Rain" transform="translate(8.488613, 20.885547)">
                            <path d="M0.103519669,0.104427736 L2.71007843,2.73385104" id="Line"></path>
                            <path d="M6.52173913,0.104427736 L9.12829789,2.73385104" id="Line-Copy"></path>
                            <path d="M12.9399586,0.104427736 L15.5465173,2.73385104" id="Line-Copy-2"></path>
                        </g>
                        <path d="M22.6362986,7.99717147 C21.4124795,3.97113317 17.7031965,1.04427736 13.3173366,1.04427736 C8.87752526,1.04427736 5.13103874,4.04358396 3.95434286,8.14624279 C1.6970097,8.61701316 0,10.6367495 0,13.0569602 C0,15.8142486 2.2026342,18.0517413 4.92705754,18.0711362 L25.920607,18.0712632 C27.8924466,18.0712632 29.4909385,16.4561697 29.4909385,14.463851 C29.4909385,12.4715322 27.8924466,10.8564387 25.920607,10.8564387 C25.9012671,9.25928375 24.6139106,7.9705089 23.0286385,7.9705089 C22.8955681,7.9705089 22.7645969,7.97958987 22.6362988,7.99717193 L22.6362986,7.99717147 Z" id="Cloudy"></path>
                        <path d="M32.1389213,12.9145162 L35.3893936,12.9145359 C36.8837903,12.9145359 38.0952381,11.6895286 38.0952381,10.1784054 C38.0952381,8.66728227 36.8837903,7.44227492 35.3893936,7.44227492 C35.3747364,6.2308735 34.3990886,5.25337053 33.1976596,5.25337053 C33.0968097,5.25337053 32.9975505,5.26025821 32.9003174,5.27359376 C31.9728224,2.21994572 29.161671,0 25.8377625,0 C24.3624981,0 22.9882412,0.437304551 21.8348499,1.19071381" id="Cloudy"></path>
                    </g>
                </g>
            </g>
        </g>
    </g>
</svg>