<?xml version="1.0" encoding="UTF-8"?>
<svg width="34px" height="26px" viewBox="0 0 34 26" version="1.1" xmlns="http://www.w3.org/2000/svg" xmlns:xlink="http://www.w3.org/1999/xlink">
    <!-- Generator: Sketch 41.2 (35397) - http://www.bohemiancoding.com/sketch -->
    <title>09n</title>
    <desc>Created with Sketch.</desc>
    <defs></defs>
    <g id="Page-1" stroke="none" stroke-width="1" fill="none" fill-rule="evenodd">
        <g id="09n" transform="translate(1.000000, 1.000000)" stroke-width="1.57342657" stroke="#FFFFFF">
            <g id="Cloud-+-Moon-+-Rain">
                <g id="Page-1">
                    <g id="Cloud-+-Moon-+-Rain">
                        <g id="Cloud" opacity="0.99000001" transform="translate(0.000000, 4.521739)">
                            <path d="M20.306697,6.07018781 C19.2088265,2.58833148 15.8812823,0.0570859609 11.9467907,0.0570859609 C7.96389989,0.0570859609 4.60298086,2.65098941 3.54738395,6.19910983 C1.52236293,6.60624823 0,8.35298563 0,10.446067 C0,12.8306649 1.97595138,14.7657255 4.41999226,14.7824988 L23.2530027,14.7826087 C25.0219117,14.7826087 26.4558956,13.3858203 26.4558956,11.6627946 C26.4558956,9.93976878 25.0219117,8.54298042 23.2530027,8.54298042 C23.2356532,7.16170591 22.080784,6.04712911 20.6586594,6.04712911 C20.5392839,6.04712911 20.4217916,6.05498264 20.3066972,6.07018821 L20.306697,6.07018781 Z" id="Cloud-2"></path>
                        </g>
                        <g id="Moon" transform="translate(21.379310, 0.000000)">
                            <path d="M9.6096228,6.70712746 C8.86668016,8.48563877 7.07755277,9.73913043 4.98850575,9.73913043 C2.2334301,9.73913043 0,7.55895183 0,4.86956522 C0,2.47319788 1.77326105,0.481122885 4.10876801,0.075481232 C3.87190353,0.642505059 3.74137931,1.26289492 3.74137931,1.91304348 C3.74137931,4.60243009 5.97480941,6.7826087 8.72988506,6.7826087 C9.03006141,6.7826087 9.32404531,6.75672788 9.6096228,6.70712746 L9.6096228,6.70712746 Z" id="Oval-31"></path>
                        </g>
                        <g id="Rain" transform="translate(6.948276, 21.565217)">
                            <path d="M0.0890804598,0.0869565217 L2.33206921,2.27646588" id="Line"></path>
                            <path d="M5.61206897,0.0869565217 L7.85505772,2.27646588" id="Line-Copy"></path>
                            <path d="M11.1350575,0.0869565217 L13.3780462,2.27646588" id="Line-Copy-2"></path>
                        </g>
                    </g>
                </g>
            </g>
        </g>
    </g>
</svg>