<?xml version="1.0" encoding="UTF-8"?>
<svg width="33px" height="26px" viewBox="0 0 33 26" version="1.1" xmlns="http://www.w3.org/2000/svg" xmlns:xlink="http://www.w3.org/1999/xlink">
    <!-- Generator: Sketch 41.2 (35397) - http://www.bohemiancoding.com/sketch -->
    <title>10d</title>
    <desc>Created with Sketch.</desc>
    <defs></defs>
    <g id="Page-1" stroke="none" stroke-width="1" fill="none" fill-rule="evenodd">
        <g id="10d" transform="translate(1.000000, 1.000000)" stroke="#FFFFFF">
            <g id="Cloud-Sun-2-Copy">
                <g id="Page-1">
                    <g id="Cloud-Sun-2-Copy">
                        <path d="M22.1779806,8.59025007 C20.9789401,4.7602081 17.3447593,1.97583804 13.0477,1.97583804 C8.69778169,1.97583804 5.02715041,4.82913183 3.87427913,8.73206429 C1.66265028,9.17991653 0,11.1013277 0,13.4037172 C0,16.0267749 2.15803739,18.1553415 4.82729922,18.1737922 L25.3957915,18.173913 C27.3277073,18.173913 28.8938344,16.6374458 28.8938344,14.7421175 C28.8938344,12.8467891 27.3277073,11.3103219 25.3957915,11.3103219 C25.3768432,9.79091998 24.1155516,8.5648855 22.5623767,8.5648855 C22.4320007,8.5648855 22.3036813,8.57352439 22.1779808,8.59025051 L22.1779806,8.59025007 Z" id="Cloud-2" stroke-width="1.57342657" opacity="0.99000001"></path>
                        <path d="M26.3548451,1.50650447 L26.9794145,0.0598711348 M29.8827309,4.95925056 L31.3648004,4.3705319 M29.888069,9.84741916 L31.3594623,10.4614786 M21.3709993,1.51175271 L20.7722044,0.0546228913" id="Line" stroke-width="1.3986014" opacity="0.99000001"></path>
                        <path d="M28.0099119,8.8476807 C28.12565,8.45421135 28.1876671,8.03839281 28.1876671,7.60836376 C28.1876671,5.1444369 26.1517017,3.14702954 23.6402112,3.14702954 C23.2964114,3.14702954 22.9615227,3.1844591 22.6395476,3.25539117" id="Oval-10" stroke-width="1.57342657" opacity="0.99000001"></path>
                        <g id="Rain" transform="translate(7.588567, 21.234783)" stroke-width="1.57342657">
                            <path d="M0.0972893183,0.0956521739 L2.54697185,2.50411247" id="Line"></path>
                            <path d="M6.12922705,0.0956521739 L8.57890959,2.50411247" id="Line-Copy"></path>
                            <path d="M12.1611648,0.0956521739 L14.6108473,2.50411247" id="Line-Copy-2"></path>
                        </g>
                    </g>
                </g>
            </g>
        </g>
    </g>
</svg>