<?xml version="1.0" encoding="UTF-8"?>
<svg width="31px" height="26px" viewBox="0 0 31 26" version="1.1" xmlns="http://www.w3.org/2000/svg" xmlns:xlink="http://www.w3.org/1999/xlink">
    <!-- Generator: Sketch 41.2 (35397) - http://www.bohemiancoding.com/sketch -->
    <title>10n</title>
    <desc>Created with Sketch.</desc>
    <defs></defs>
    <g id="Page-1" stroke="none" stroke-width="1" fill="none" fill-rule="evenodd">
        <g id="10n" transform="translate(1.000000, 1.000000)">
            <g id="Cloud-+-Light-Rain-+-Moon">
                <g id="Page-1">
                    <g id="Cloud-+-Light-Rain-+-Moon">
                        <g id="Cloud" opacity="0.99000001" transform="translate(0.000000, 4.287164)" stroke="#FFFFFF" stroke-width="1.57342657">
                            <path d="M18.6950544,5.75528334 C17.6843164,2.45405604 14.6208631,0.0541244999 10.9986327,0.0541244999 C7.33184435,0.0541244999 4.23766492,2.51346345 3.26584554,5.87751724 C1.40154048,6.26353444 0,7.91965596 0,9.90415413 C0,12.1650457 1.81912985,13.9997207 4.06919922,14.0156239 L21.4075263,14.0157281 C23.0360457,14.0157281 24.3562214,12.6914012 24.3562214,11.0577612 C24.3562214,9.42412121 23.0360457,8.09979435 21.4075263,8.09979435 C21.3915538,6.79017652 20.3283409,5.73342087 19.0190833,5.73342087 C18.909182,5.73342087 18.8010145,5.74086698 18.6950545,5.75528372 L18.6950544,5.75528334 Z" id="Cloud-2"></path>
                        </g>
                        <g id="Light-Rain" transform="translate(6.560847, 19.786910)" fill="#FFFFFF">
                            <ellipse id="Oval-24" cx="0.902116402" cy="0.906900051" rx="0.902116402" ry="0.906900051"></ellipse>
                            <ellipse id="Oval-24-Copy" cx="5.16666667" cy="0.906900051" rx="0.902116402" ry="0.906900051"></ellipse>
                            <ellipse id="Oval-24-Copy-2" cx="9.43121693" cy="0.906900051" rx="0.902116402" ry="0.906900051"></ellipse>
                            <ellipse id="Oval-24" cx="0.902116402" cy="3.38026383" rx="0.902116402" ry="0.906900051"></ellipse>
                            <ellipse id="Oval-24-Copy" cx="5.16666667" cy="3.38026383" rx="0.902116402" ry="0.906900051"></ellipse>
                            <ellipse id="Oval-24-Copy-2" cx="9.43121693" cy="3.38026383" rx="0.902116402" ry="0.906900051"></ellipse>
                        </g>
                        <g id="Moon" transform="translate(19.846561, 0.000000)" stroke="#FFFFFF" stroke-width="1.57342657">
                            <path d="M8.84695432,6.35918034 C8.16297539,8.04542742 6.51584224,9.23389143 4.59259259,9.23389143 C2.05617374,9.23389143 0,7.16681442 0,4.61694571 C0,2.34489525 1.63252604,0.456163568 3.78267531,0.0715654755 C3.5646096,0.609173683 3.44444444,1.19737944 3.44444444,1.8138001 C3.44444444,4.36366881 5.50061819,6.43074581 8.03703704,6.43074581 C8.31338987,6.43074581 8.58404171,6.40620762 8.84695432,6.35918034 L8.84695432,6.35918034 Z" id="Oval-31"></path>
                        </g>
                    </g>
                </g>
            </g>
        </g>
    </g>
</svg>