<?xml version="1.0" encoding="UTF-8"?>
<svg width="33px" height="26px" viewBox="0 0 33 26" version="1.1" xmlns="http://www.w3.org/2000/svg" xmlns:xlink="http://www.w3.org/1999/xlink">
    <!-- Generator: Sketch 41.2 (35397) - http://www.bohemiancoding.com/sketch -->
    <title>11d</title>
    <desc>Created with Sketch.</desc>
    <defs></defs>
    <g id="Page-1" stroke="none" stroke-width="1" fill="none" fill-rule="evenodd">
        <g id="11d" transform="translate(1.000000, 1.000000)" stroke-width="1.57342657" stroke="#FFFFFF">
            <g id="Cloud-+-Sunny-+-Lightening">
                <g id="Page-1">
                    <g id="Cloud-+-Sunny-+-Lightening">
                        <g id="Cloud" opacity="0.99000001">
                            <path d="M23.6774341,7.35431519 C22.3973265,3.13588411 18.5174386,0.0691622998 13.9298552,0.0691622998 C9.2858388,0.0691622998 5.3670361,3.21179711 4.13621918,7.51051022 C1.77506209,8.00377735 0,10.1200311 0,12.6558966 C0,15.544948 2.30394233,17.889364 5.15367297,17.9096857 L27.1128012,17.9098188 C29.1753339,17.9098188 30.8473469,16.2175446 30.8473469,14.1300187 C30.8473469,12.0424927 29.1753339,10.3502186 27.1128012,10.3502186 C27.0925719,8.6767402 25.7460043,7.32637851 24.0878192,7.32637851 C23.9486285,7.32637851 23.8116334,7.33589343 23.6774343,7.35431568 L23.6774341,7.35431519 Z" id="Cloud-2"></path>
                        </g>
                        <g id="Lightening" transform="translate(8.101630, 20.859671)">
                            <polyline id="Line" points="0.10386705 0.105351875 1.71238627 1.73686558 2.71917265 2.75804442"></polyline>
                            <polyline id="Line-Copy" points="6.54362416 0.105351875 7.98173651 1.77472641 8.88176878 1.1586049 10.1976003 2.75804442"></polyline>
                            <path d="M12.9833813,0.105351875 L15.5986869,2.75804442" id="Line-Copy-2"></path>
                        </g>
                    </g>
                </g>
            </g>
        </g>
    </g>
</svg>