<?xml version="1.0" encoding="UTF-8"?>
<svg width="37px" height="25px" viewBox="0 0 37 25" version="1.1" xmlns="http://www.w3.org/2000/svg" xmlns:xlink="http://www.w3.org/1999/xlink">
    <!-- Generator: Sketch 41.2 (35397) - http://www.bohemiancoding.com/sketch -->
    <title>11n</title>
    <desc>Created with Sketch.</desc>
    <defs></defs>
    <g id="Page-1" stroke="none" stroke-width="1" fill="none" fill-rule="evenodd">
        <g id="11n" transform="translate(1.000000, 1.000000)">
            <g id="Cloudy-2-Light-Rain">
                <g id="Page-1">
                    <g id="Cloudy-2-Light-Rain">
                        <path d="M20.6679248,7.50525707 C19.5505248,3.7268646 16.1637881,0.980042766 12.1593074,0.980042766 C8.10556654,0.980042766 4.68486146,3.79485887 3.61048696,7.64515886 C1.54944364,8.08697165 0,9.98247189 0,12.2538129 C0,14.8414976 2.01110079,16.9413598 4.49861775,16.9595617 L23.6666412,16.9596809 C25.4670164,16.9596809 26.9265091,15.4439335 26.9265091,13.5741643 C26.9265091,11.7043952 25.4670164,10.1886478 23.6666412,10.1886478 C23.648983,8.68973551 22.4735705,7.48023454 21.0261482,7.48023454 C20.9046491,7.48023454 20.7850667,7.48875694 20.667925,7.50525751 L20.6679248,7.50525707 Z" id="Cloudy" stroke="#FFFFFF" stroke-width="1.57342657"></path>
                        <path d="M29.3442325,12.1201308 L32.312055,12.1201492 C33.6765042,12.1201492 34.7826087,10.9704934 34.7826087,9.55232103 C34.7826087,8.13414865 33.6765042,6.98449279 32.312055,6.98449279 C32.2986724,5.84760594 31.4078635,4.9302302 30.3109066,4.9302302 C30.2188263,4.9302302 30.1281983,4.93669421 30.0394202,4.94920948 C29.1925769,2.08339453 26.6258735,0 23.5910006,0 C22.24402,0 20.9892637,0.41040549 19.9361673,1.11747176" id="Cloudy" stroke="#FFFFFF" stroke-width="1.57342657"></path>
                        <g id="Rain" transform="translate(7.750473, 18.620813)" fill="#FFFFFF">
                            <ellipse id="Oval-24" cx="0.956994329" cy="0.9922933" rx="0.956994329" ry="0.9922933"></ellipse>
                            <ellipse id="Oval-24-Copy" cx="6.4862949" cy="0.9922933" rx="0.956994329" ry="0.9922933"></ellipse>
                            <ellipse id="Oval-24-Copy-2" cx="12.0155955" cy="0.9922933" rx="0.956994329" ry="0.9922933"></ellipse>
                            <ellipse id="Oval-24" cx="0.956994329" cy="4.29993763" rx="0.956994329" ry="0.9922933"></ellipse>
                            <ellipse id="Oval-24-Copy" cx="6.4862949" cy="4.29993763" rx="0.956994329" ry="0.9922933"></ellipse>
                            <ellipse id="Oval-24-Copy-2" cx="12.0155955" cy="4.29993763" rx="0.956994329" ry="0.9922933"></ellipse>
                        </g>
                    </g>
                </g>
            </g>
        </g>
    </g>
</svg>