<?xml version="1.0" encoding="UTF-8"?>
<svg width="32px" height="25px" viewBox="0 0 32 25" version="1.1" xmlns="http://www.w3.org/2000/svg" xmlns:xlink="http://www.w3.org/1999/xlink">
    <!-- Generator: Sketch 41.2 (35397) - http://www.bohemiancoding.com/sketch -->
    <title>13d</title>
    <desc>Created with Sketch.</desc>
    <defs></defs>
    <g id="Page-1" stroke="none" stroke-width="1" fill="none" fill-rule="evenodd">
        <g id="13d" transform="translate(1.000000, 1.000000)" stroke="#FFFFFF">
            <g id="Cloud-+-Snow">
                <g id="Page-1">
                    <g id="Cloud-+-Snow">
                        <g id="Cloud" opacity="0.99000001" stroke-width="1.57342657">
                            <path d="M22.6011871,7.11902853 C21.3792662,3.03555775 17.6757369,0.0669495899 13.2966799,0.0669495899 C8.86375522,0.0669495899 5.12307992,3.10904207 3.94820922,7.27022641 C1.69437745,7.74771244 0,9.79626083 0,12.2509965 C0,15.0476183 2.19921767,17.3170294 4.91941511,17.336701 L25.8804012,17.3368298 C27.8491824,17.3368298 29.4451947,15.6986966 29.4451947,13.6779569 C29.4451947,11.6572172 27.8491824,10.019084 25.8804012,10.019084 C25.8610914,8.39914519 24.5757314,7.09198563 22.9929184,7.09198563 C22.8600544,7.09198563 22.7292865,7.10119614 22.6011873,7.119029 L22.6011871,7.11902853 Z" id="Cloud-2"></path>
                        </g>
                        <g id="Snow" transform="translate(6.345333, 19.580420)" stroke-width="0.874125874">
                            <path d="M0.0991458206,1.32575758 L2.8752288,1.32575758 M2.18120805,0.0892993936 L0.793166565,2.56221575 M2.18120805,2.56221575 L0.793166565,0.0892993936" id="Line"></path>
                            <path d="M7.26681644,3.00746892 L10.0428994,3.00746892 M9.34887867,1.77101075 L7.96083719,4.24392712 M9.34887867,4.24392712 L7.96083719,1.77101075" id="Line-Copy-3"></path>
                            <path d="M13.612149,1.3757673 L16.3882319,1.3757673 M15.6942112,0.139309117 L14.3061697,2.61222549 M15.6942112,2.61222549 L14.3061697,0.139309117" id="Line-Copy-4"></path>
                        </g>
                    </g>
                </g>
            </g>
        </g>
    </g>
</svg>