<?xml version="1.0" encoding="UTF-8"?>
<svg width="29px" height="26px" viewBox="0 0 29 26" version="1.1" xmlns="http://www.w3.org/2000/svg" xmlns:xlink="http://www.w3.org/1999/xlink">
    <!-- Generator: Sketch 41.2 (35397) - http://www.bohemiancoding.com/sketch -->
    <title>50d</title>
    <desc>Created with Sketch.</desc>
    <defs></defs>
    <g id="Page-1" stroke="none" stroke-width="1" fill="none" fill-rule="evenodd">
        <g id="50d" transform="translate(1.000000, 1.000000)" stroke-width="1.57342657" stroke="#FFFFFF">
            <g id="Fog">
                <g id="Page-1">
                    <g id="Fog">
                        <path d="M14.1712707,15.6556106 C14.1712707,15.6556106 15.0058217,13.5381101 17.7623938,12.5234574 C20.5189658,11.5088048 20.793336,13.6459042 23.3364182,12.7143428 C25.8795005,11.7827814 26.8666609,9.39130435 26.8666609,9.39130435" id="Line-Copy-5"></path>
                        <path d="M14.1712707,20.7239335 C14.1712707,20.7239335 15.0058217,18.6064331 17.7623938,17.5917804 C20.5189658,16.5771278 20.793336,18.7142272 23.3364182,17.7826658 C25.8795005,16.8511044 26.8666609,14.4596273 26.8666609,14.4596273" id="Line-Copy-5"></path>
                        <path d="M0.103178861,9.44998786 C0.103178861,9.44998786 0.937729873,7.33248741 3.69430192,6.31783476 C6.45087397,5.30318211 6.72524411,7.44028149 9.26832636,6.50872012 C11.8114086,5.57715874 12.7985691,3.18568166 12.7985691,3.18568166" id="Line-Copy-5"></path>
                        <path d="M14.1712707,6.2643062 C14.1712707,6.2643062 15.0058217,4.14680575 17.7623938,3.1321531 C20.5189658,2.11750045 20.793336,4.25459983 23.3364182,3.32303846 C25.8795005,2.39147708 26.8666609,0 26.8666609,0" id="Line-Copy-5"></path>
                        <path d="M14.1712707,11.0344925 C14.1712707,11.0344925 15.0058217,8.91699208 17.7623938,7.90233944 C20.5189658,6.88768679 20.793336,9.02478617 23.3364182,8.09322479 C25.8795005,7.16166342 26.8666609,4.77018634 26.8666609,4.77018634" id="Line-Copy-5"></path>
                        <path d="M0.149171271,23.8543683 C0.149171271,23.8543683 0.983722284,21.7368679 3.74029433,20.7222152 C6.49686638,19.7075626 6.77123652,21.8446619 9.31431877,20.9131006 C11.857401,19.9815392 12.8445615,17.5900621 12.8445615,17.5900621" id="Line-Copy-5"></path>
                        <path d="M0.149171271,18.7860453 C0.149171271,18.7860453 0.983722284,16.6685449 3.74029433,15.6538922 C6.49686638,14.6392396 6.77123652,16.776339 9.31431877,15.8447776 C11.857401,14.9132162 12.8445615,12.5217391 12.8445615,12.5217391" id="Line-Copy-5"></path>
                        <path d="M0.149171271,14.015859 C0.149171271,14.015859 0.983722284,11.8983585 3.74029433,10.8837059 C6.49686638,9.86905325 6.77123652,12.0061526 9.31431877,11.0745913 C11.857401,10.1430299 12.8445615,7.7515528 12.8445615,7.7515528" id="Line-Copy-5"></path>
                    </g>
                </g>
            </g>
        </g>
    </g>
</svg>