<?xml version="1.0" encoding="UTF-8"?>
<svg width="30px" height="28px" viewBox="0 0 30 28" version="1.1" xmlns="http://www.w3.org/2000/svg" xmlns:xlink="http://www.w3.org/1999/xlink">
    <!-- Generator: Sketch 41.2 (35397) - http://www.bohemiancoding.com/sketch -->
    <title>50n</title>
    <desc>Created with Sketch.</desc>
    <defs></defs>
    <g id="Page-1" stroke="none" stroke-width="1" fill="none" fill-rule="evenodd">
        <g id="50n" transform="translate(14.500000, 14.500000) scale(-1, 1) translate(-14.500000, -14.500000) translate(1.000000, 2.000000)" stroke-width="2.28032837" stroke="#FFFFFF">
            <g id="Fog">
                <g id="Page-1">
                    <g id="Fog">
                        <path d="M2.82507813,24.8617346 C2.82507813,24.8617346 -2.82198146,24.8617346 2.05949512,20.4372885 C6.94097171,16.0128424 5.35965072,24.8577077 10.2619213,20.715663 C15.1641919,16.5736182 10.2619213,16.5736182 10.2619213,16.5736182" id="Line-Copy-5"></path>
                        <path d="M17.2408069,8.28811631 C17.2408069,8.28811631 11.5937473,8.28811631 16.4752239,3.86367024 C21.3567005,-0.560775829 19.7753795,8.28408944 24.6776501,4.14204472 C29.5799207,0 24.6776501,0 24.6776501,0" id="Line-Copy-5"></path>
                        <path d="M2.75300204,8.28811631 C2.75300204,8.28811631 -2.89405755,8.28811631 1.98741903,3.86367024 C6.86889562,-0.560775829 5.28757463,8.28408944 10.1898452,4.14204472 C15.0921159,0 10.1898452,0 10.1898452,0" id="Line-Copy-5"></path>
                        <path d="M17.2408069,16.5489859 C17.2408069,16.5489859 11.5937473,16.5489859 16.4752239,12.1245398 C21.3567005,7.70009374 19.7753795,16.544959 24.6776501,12.4029143 C29.5799207,8.26086957 24.6776501,8.26086957 24.6776501,8.26086957" id="Line-Copy-5"></path>
                        <path d="M17.2408069,24.8098554 C17.2408069,24.8098554 11.5937473,24.8098554 16.4752239,20.3854094 C21.3567005,15.9609633 19.7753795,24.8058286 24.6776501,20.6637839 C29.5799207,16.5217391 24.6776501,16.5217391 24.6776501,16.5217391" id="Line-Copy-5"></path>
                        <path d="M2.75300204,16.5489859 C2.75300204,16.5489859 -2.89405755,16.5489859 1.98741903,12.1245398 C6.86889562,7.70009374 5.28757463,16.544959 10.1898452,12.4029143 C15.0921159,8.26086957 10.1898452,8.26086957 10.1898452,8.26086957" id="Line-Copy-5"></path>
                    </g>
                </g>
            </g>
        </g>
    </g>
</svg>