<?xml version="1.0" encoding="UTF-8"?>
<svg width="262px" height="157px" viewBox="0 0 262 157" version="1.1" xmlns="http://www.w3.org/2000/svg" xmlns:xlink="http://www.w3.org/1999/xlink">
    <!-- Generator: Sketch 41.2 (35397) - http://www.bohemiancoding.com/sketch -->
    <title>02d</title>
    <desc>Created with Sketch.</desc>
    <defs></defs>
    <g id="Page-1" stroke="none" stroke-width="1" fill="none" fill-rule="evenodd" opacity="0.99000001">
        <g id="02d" transform="translate(5.000000, 2.000000)" stroke="#FFFFFF">
            <g id="Cloud-Sun-2">
                <g id="Page-1">
                    <g id="Cloud-Sun-2">
                        <path d="M180.115793,70.9003893 C170.37793,39.2887989 140.863369,16.3077542 105.965321,16.3077542 C70.6379842,16.3077542 40.8273953,39.857667 31.4644904,72.0708655 C13.5030136,75.7672536 0,91.6257906 0,110.628767 C0,132.278405 17.5262402,149.846718 39.204328,149.999002 L206.248856,150 C221.938677,150 234.657789,137.318632 234.657789,121.675372 C234.657789,106.032111 221.938677,93.3507433 206.248856,93.3507433 C206.09497,80.8102247 195.851542,70.6910406 183.237619,70.6910406 C182.178786,70.6910406 181.136656,70.7623424 180.115794,70.9003929 L180.115793,70.9003893 Z" id="Cloud-2" stroke-width="9.44055944"></path>
                        <path d="M214.037694,12.434068 L219.110059,0.494151711 M242.688992,40.9316135 L254.725441,36.0725719 M242.732345,81.2765457 L254.682088,86.3447395 M173.561992,12.4773848 L168.698951,0.450834868" id="Line" stroke-width="8.39160839"></path>
                        <path d="M227.479119,73.0251158 C228.419072,69.7775817 228.922736,66.3455866 228.922736,62.7963038 C228.922736,42.4600653 212.387889,25.9742869 191.991122,25.9742869 C189.198993,25.9742869 186.479235,26.2832151 183.864353,26.8686592" id="Oval-10" stroke-width="9.44055944"></path>
                    </g>
                </g>
            </g>
        </g>
    </g>
</svg>