<?xml version="1.0" encoding="UTF-8"?>
<svg width="234px" height="154px" viewBox="0 0 234 154" version="1.1" xmlns="http://www.w3.org/2000/svg" xmlns:xlink="http://www.w3.org/1999/xlink">
    <!-- Generator: Sketch 41.2 (35397) - http://www.bohemiancoding.com/sketch -->
    <title>02n</title>
    <desc>Created with Sketch.</desc>
    <defs></defs>
    <g id="Page-1" stroke="none" stroke-width="1" fill="none" fill-rule="evenodd">
        <g id="02n" transform="translate(5.000000, 6.000000)" stroke-width="9.44055944" stroke="#FFFFFF">
            <g id="Cloud-+-Moon">
                <g id="Page-1">
                    <g id="Cloud-+-Moon">
                        <g id="Cloud" opacity="0.99000001" transform="translate(0.000000, 33.462033)">
                            <path d="M143.858443,44.9209523 C136.080815,19.1543192 112.507541,0.422450804 84.6344784,0.422450804 C56.4185422,0.422450804 32.6088315,19.618004 25.1306814,45.8750084 C10.784854,48.8879373 0,61.8142438 0,77.3035849 C0,94.9502228 13.9982042,109.270169 31.312488,109.394296 L164.730915,109.395109 C177.262372,109.395109 187.421124,99.058516 187.421124,86.3076817 C187.421124,73.5568475 177.262372,63.2202541 164.730915,63.2202541 C164.608006,52.9984672 156.426583,44.750312 146.351846,44.750312 C145.506156,44.750312 144.673807,44.8084301 143.858445,44.9209552 L143.858443,44.9209523 Z" id="Cloud-2"></path>
                        </g>
                        <g id="Moon" transform="translate(152.719286, 0.000000)">
                            <path d="M68.0773135,49.6344696 C62.8140956,62.7959111 50.139406,72.0720721 35.34,72.0720721 C15.8222569,72.0720721 0,55.9381892 0,36.036036 C0,18.3023009 12.5622879,3.56043319 29.1076865,0.558580546 C27.4296708,4.75470282 26.505,9.34574748 26.505,14.1570142 C26.505,34.0591673 42.3272569,50.1930502 61.845,50.1930502 C63.971535,50.1930502 66.054201,50.0015255 68.0773135,49.6344696 L68.0773135,49.6344696 Z" id="Oval-31"></path>
                        </g>
                    </g>
                </g>
            </g>
        </g>
    </g>
</svg>