<?xml version="1.0" encoding="UTF-8"?>
<svg width="252px" height="152px" viewBox="0 0 252 152" version="1.1" xmlns="http://www.w3.org/2000/svg" xmlns:xlink="http://www.w3.org/1999/xlink">
    <!-- Generator: Sketch 41.2 (35397) - http://www.bohemiancoding.com/sketch -->
    <title>03n</title>
    <desc>Created with Sketch.</desc>
    <defs></defs>
    <g id="Page-1" stroke="none" stroke-width="1" fill="none" fill-rule="evenodd">
        <g id="03n" transform="translate(5.000000, 6.000000)" stroke-width="9.44055944" stroke="#FFFFFF">
            <g id="Cloud-+-Moon-Copy">
                <g id="Page-1">
                    <g id="Cloud-+-Moon-Copy">
                        <g id="Cloud" opacity="0.99000001" transform="translate(0.000000, 6.345010)">
                            <path d="M176.996034,55.3658901 C167.42684,23.6080465 138.423496,0.520678295 104.129912,0.520678295 C69.4144744,0.520678295 40.1202302,24.1795465 30.9194987,56.5417816 C13.26913,60.2552713 0,76.187179 0,95.2780735 C0,117.027875 17.2226709,134.67747 38.5252757,134.830458 L202.67645,134.831461 C218.094511,134.831461 230.593317,122.091421 230.593317,106.375786 C230.593317,90.6601515 218.094511,77.9201122 202.67645,77.9201122 C202.52523,65.3215741 192.459227,55.1555729 180.063788,55.1555729 C179.023295,55.1555729 177.999215,55.2272045 176.996036,55.3658938 L176.996034,55.3658901 Z" id="Cloud-2"></path>
                        </g>
                        <g id="Moon" transform="translate(169.263451, 0.000000)">
                            <path d="M1.16870272,10.725964 C6.93959046,5.6565203 14.0275615,2.10778461 21.83672,0.688460675 C19.7721758,5.86025764 18.6345083,11.5188036 18.6345083,17.4487773 C18.6345083,41.9785428 38.1014,61.8638467 62.1150278,61.8638467 C64.7314072,61.8638467 67.2938124,61.627789 69.782946,61.175386 C67.7809228,66.1905643 64.9073103,70.7480279 61.3543234,74.6514309 L61.3543234,74.6514309" id="Oval-31"></path>
                        </g>
                    </g>
                </g>
            </g>
        </g>
    </g>
</svg>