<?xml version="1.0" encoding="UTF-8"?>
<svg width="330px" height="159px" viewBox="0 0 330 159" version="1.1" xmlns="http://www.w3.org/2000/svg" xmlns:xlink="http://www.w3.org/1999/xlink">
    <!-- Generator: Sketch 41.2 (35397) - http://www.bohemiancoding.com/sketch -->
    <title>04d</title>
    <desc>Created with Sketch.</desc>
    <defs></defs>
    <g id="Page-1" stroke="none" stroke-width="1" fill="none" fill-rule="evenodd">
        <g id="04d" transform="translate(5.000000, 5.000000)" stroke-width="9.44055944" stroke="#FFFFFF">
            <g id="Cloudy-2">
                <g id="Page-1">
                    <g id="Cloudy-2">
                        <path d="M190.144908,66.0180293 C179.864828,32.782389 148.706851,8.62068966 111.865628,8.62068966 C74.5712122,8.62068966 43.1007254,33.3804828 33.21648,67.2486388 C14.2548815,71.1349293 0,87.808201 0,107.787458 C0,130.549349 18.5021273,149.020237 41.3872833,149.180345 L217.733099,149.181394 C234.296551,149.181394 247.723883,135.848518 247.723883,119.401583 C247.723883,102.954648 234.296551,89.6217733 217.733099,89.6217733 C217.570643,76.4369838 206.756849,65.7979252 193.440563,65.7979252 C192.322772,65.7979252 191.222614,65.8728902 190.14491,66.0180331 L190.144908,66.0180293 Z" id="Cloudy"></path>
                        <path d="M269.966939,106.611558 L297.270906,106.61172 C309.823838,106.61172 320,96.4990736 320,84.0244916 C320,71.5499095 309.823838,61.4372626 297.270906,61.4372626 C297.147786,51.436935 288.952344,43.3674795 278.860341,43.3674795 C278.013202,43.3674795 277.179424,43.4243384 276.362666,43.5344257 C268.571708,18.3260347 244.958037,0 217.037205,0 C204.644984,0 193.101226,3.61002447 183.412739,9.82954779" id="Cloudy"></path>
                    </g>
                </g>
            </g>
        </g>
    </g>
</svg>