<?xml version="1.0" encoding="UTF-8"?>
<svg width="176px" height="153px" viewBox="0 0 176 153" version="1.1" xmlns="http://www.w3.org/2000/svg" xmlns:xlink="http://www.w3.org/1999/xlink">
    <!-- Generator: Sketch 41.2 (35397) - http://www.bohemiancoding.com/sketch -->
    <title>04n</title>
    <desc>Created with Sketch.</desc>
    <defs></defs>
    <g id="Page-1" stroke="none" stroke-width="1" fill="none" fill-rule="evenodd">
        <g id="04n" transform="translate(5.000000, 6.000000)" stroke-width="9.44055944" stroke="#FFFFFF">
            <g id="Cloud-+-Light-Rain-+-Moon-Copy-2">
                <g id="Page-1">
                    <g id="Cloud-+-Light-Rain-+-Moon-Copy-2">
                        <g id="Cloud" opacity="0.99000001" transform="translate(0.000000, 67.080745)">
                            <path d="M100.641495,30.8073441 C95.2003678,13.1362688 78.7088123,0.289721982 59.20918,0.289721982 C39.4696782,0.289721982 22.8127143,13.4542696 17.5810978,31.4616476 C7.54494353,33.5279515 0,42.3929722 0,53.0157538 C0,65.1180361 9.79296153,74.9388322 21.9058093,75.0239602 L115.243605,75.0245178 C124.010449,75.0245178 131.11738,67.9355543 131.11738,59.1908746 C131.11738,50.4461949 124.010449,43.3572314 115.243605,43.3572314 C115.15762,36.3470037 109.434002,30.6903169 102.385847,30.6903169 C101.794214,30.6903169 101.211913,30.7301751 100.641496,30.8073462 L100.641495,30.8073441 Z" id="Cloud-2"></path>
                        </g>
                        <g id="Moon" transform="translate(106.840426, 0.000000)">
                            <path d="M47.6260029,34.0399326 C43.9439241,43.0662118 35.0768762,49.4279176 24.7234043,49.4279176 C11.0690451,49.4279176 0,38.3631014 0,24.7139588 C0,12.5519441 8.78841318,2.44178908 20.3633588,0.383081441 C19.1894409,3.26083395 18.5425532,6.40942911 18.5425532,9.70905525 C18.5425532,23.3581978 29.6115983,34.4230141 43.2659574,34.4230141 C44.7536537,34.4230141 46.2106597,34.291664 47.6260029,34.0399326 L47.6260029,34.0399326 Z" id="Oval-31"></path>
                        </g>
                        <path d="M140.597576,119.893331 L154.460149,119.893414 C160.833433,119.893414 166,114.716427 166,108.330289 C166,101.944151 160.833433,96.7671633 154.460149,96.7671633 C154.397639,91.6476755 150.236709,87.5166632 145.11287,87.5166632 C144.682767,87.5166632 144.259447,87.5457712 143.844768,87.6021284 C139.8892,74.6971462 127.900237,65.3154626 113.724475,65.3154626 C107.432786,65.3154626 101.571872,67.1635496 96.652904,70.3475227" id="Cloudy"></path>
                    </g>
                </g>
            </g>
        </g>
    </g>
</svg>