<?xml version="1.0" encoding="UTF-8"?>
<svg width="238px" height="150px" viewBox="0 0 238 150" version="1.1" xmlns="http://www.w3.org/2000/svg" xmlns:xlink="http://www.w3.org/1999/xlink">
    <!-- Generator: Sketch 41.2 (35397) - http://www.bohemiancoding.com/sketch -->
    <title>09d</title>
    <desc>Created with Sketch.</desc>
    <defs></defs>
    <g id="Page-1" stroke="none" stroke-width="1" fill="none" fill-rule="evenodd">
        <g id="09d" transform="translate(5.000000, 5.000000)" stroke-width="9.44055944" stroke="#FFFFFF">
            <g id="Cloud-Rain-Wind">
                <g id="Page-1">
                    <g id="Cloud-Rain-Wind">
                        <g id="Rain" transform="translate(50.804348, 125.313283)">
                            <path d="M0.619565217,0.626566416 L16.2198194,16.4031063" id="Line"></path>
                            <path d="M39.0326087,0.626566416 L54.6328629,16.4031063" id="Line-Copy"></path>
                            <path d="M77.4456522,0.626566416 L93.0459063,16.4031063" id="Line-Copy-2"></path>
                        </g>
                        <path d="M135.478247,47.9830288 C128.15369,23.826799 105.953631,6.26566416 79.7042598,6.26566416 C53.1319887,6.26566416 30.7092668,24.2615038 23.666742,48.8774568 C10.1566031,51.7020789 0,63.820497 0,78.3417612 C0,94.8854917 13.1827657,108.310448 29.4884394,108.426817 L155.134833,108.427579 C166.936293,108.427579 176.503267,98.7370184 176.503267,86.7831058 C176.503267,74.8291931 166.936293,65.1386322 155.134833,65.1386322 C155.019083,55.5557025 147.314255,47.8230534 137.826401,47.8230534 C137.029975,47.8230534 136.246112,47.8775392 135.478248,47.9830316 L135.478247,47.9830288 Z" id="Cloudy"></path>
                        <path d="M192.351444,77.4870972 L211.805521,77.4872153 C220.749485,77.4872153 228,70.1371713 228,61.0704325 C228,52.0036936 220.749485,44.6536495 211.805521,44.6536495 C211.717798,37.385241 205.878545,31.5202232 198.687993,31.5202232 C198.084406,31.5202232 197.49034,31.5615492 196.9084,31.6415625 C191.357342,13.3196743 174.532601,0 154.639009,0 C145.809551,0 137.584624,2.62382731 130.681577,7.14428286" id="Cloudy"></path>
                    </g>
                </g>
            </g>
        </g>
    </g>
</svg>