<?xml version="1.0" encoding="UTF-8"?>
<svg width="199px" height="153px" viewBox="0 0 199 153" version="1.1" xmlns="http://www.w3.org/2000/svg" xmlns:xlink="http://www.w3.org/1999/xlink">
    <!-- Generator: Sketch 41.2 (35397) - http://www.bohemiancoding.com/sketch -->
    <title>09n</title>
    <desc>Created with Sketch.</desc>
    <defs></defs>
    <g id="Page-1" stroke="none" stroke-width="1" fill="none" fill-rule="evenodd">
        <g id="09n" transform="translate(5.000000, 6.000000)" stroke-width="9.44055944" stroke="#FFFFFF">
            <g id="Cloud-+-Moon-+-Rain">
                <g id="Page-1">
                    <g id="Cloud-+-Moon-+-Rain">
                        <g id="Cloud" opacity="0.99000001" transform="translate(0.000000, 27.130435)">
                            <path d="M121.840182,36.4211269 C115.252959,15.5299889 95.2876939,0.342515765 71.6807439,0.342515765 C47.7833994,0.342515765 27.6178851,15.9059365 21.2843037,37.194659 C9.13417758,39.6374894 0,50.1179138 0,62.6764023 C0,76.9839893 11.8557083,88.5943528 26.5199535,88.6949929 L139.518016,88.6956522 C150.13147,88.6956522 158.735374,80.314922 158.735374,69.9767673 C158.735374,59.6386127 150.13147,51.2578825 139.518016,51.2578825 C139.413919,42.9702355 132.484704,36.2827747 123.951956,36.2827747 C123.235704,36.2827747 122.53075,36.3298959 121.840183,36.4211293 L121.840182,36.4211269 Z" id="Cloud-2"></path>
                        </g>
                        <g id="Moon" transform="translate(128.275862, 0.000000)">
                            <path d="M57.6577368,40.2427648 C53.200081,50.9138326 42.4653166,58.4347826 29.9310345,58.4347826 C13.4005806,58.4347826 0,45.353711 0,29.2173913 C0,14.8391873 10.6395663,2.88673731 24.652608,0.452887392 C23.2314212,3.85503035 22.4482759,7.57736952 22.4482759,11.4782609 C22.4482759,27.6145805 35.8488564,40.6956522 52.3793103,40.6956522 C54.1803684,40.6956522 55.9442719,40.5403673 57.6577368,40.2427648 L57.6577368,40.2427648 Z" id="Oval-31"></path>
                        </g>
                        <g id="Rain" transform="translate(41.689655, 129.391304)">
                            <path d="M0.534482759,0.52173913 L13.9924153,13.6587953" id="Line"></path>
                            <path d="M33.6724138,0.52173913 L47.1303463,13.6587953" id="Line-Copy"></path>
                            <path d="M66.8103448,0.52173913 L80.2682773,13.6587953" id="Line-Copy-2"></path>
                        </g>
                    </g>
                </g>
            </g>
        </g>
    </g>
</svg>