<?xml version="1.0" encoding="UTF-8"?>
<svg width="196px" height="148px" viewBox="0 0 196 148" version="1.1" xmlns="http://www.w3.org/2000/svg" xmlns:xlink="http://www.w3.org/1999/xlink">
    <!-- Generator: Sketch 41.2 (35397) - http://www.bohemiancoding.com/sketch -->
    <title>10d</title>
    <desc>Created with Sketch.</desc>
    <defs></defs>
    <g id="Page-1" stroke="none" stroke-width="1" fill="none" fill-rule="evenodd">
        <g id="10d" transform="translate(5.000000, 2.000000)" stroke="#FFFFFF">
            <g id="Cloud-Sun-2-Copy">
                <g id="Page-1">
                    <g id="Cloud-Sun-2-Copy">
                        <path d="M133.67969,51.5415004 C126.45237,28.5612486 104.547032,11.8550282 78.6461368,11.8550282 C52.4266289,11.8550282 30.3015825,28.974791 23.3525514,52.3923857 C10.0217679,55.0794992 0,66.6079661 0,80.4223034 C0,96.1606491 13.0077564,108.932049 29.0969622,109.042753 L153.075323,109.043478 C164.720112,109.043478 174.160078,99.8246751 174.160078,88.4527049 C174.160078,77.0807348 164.720112,67.8619316 153.075323,67.8619316 C152.96111,58.7455199 145.358566,51.389313 135.996671,51.389313 C135.210818,51.389313 134.437362,51.4411463 133.679691,51.541503 L133.67969,51.5415004 Z" id="Cloud-2" stroke-width="9.44055944" opacity="0.99000001"></path>
                        <path d="M158.856101,9.0390268 L162.620747,0.359226809 M180.120737,29.7555034 L189.054038,26.2231914 M180.152912,59.0845149 L189.021862,62.7688715 M128.815541,9.07051626 L125.206253,0.327737348" id="Line" stroke-width="8.39160839" opacity="0.99000001"></path>
                        <path d="M168.832159,53.0860842 C169.52978,50.7252681 169.903593,48.2303569 169.903593,45.6501826 C169.903593,30.8666214 157.631636,18.8821773 142.493411,18.8821773 C140.421128,18.8821773 138.402557,19.1067546 136.461825,19.532347" id="Oval-10" stroke-width="9.44055944" opacity="0.99000001"></path>
                        <g id="Rain" transform="translate(45.740741, 127.408696)" stroke-width="9.44055944">
                            <path d="M0.586419753,0.573913043 L15.3520924,15.0246748" id="Line"></path>
                            <path d="M36.9444444,0.573913043 L51.7101171,15.0246748" id="Line-Copy"></path>
                            <path d="M73.3024691,0.573913043 L88.0681418,15.0246748" id="Line-Copy-2"></path>
                        </g>
                    </g>
                </g>
            </g>
        </g>
    </g>
</svg>