<?xml version="1.0" encoding="UTF-8"?>
<svg width="185px" height="151px" viewBox="0 0 185 151" version="1.1" xmlns="http://www.w3.org/2000/svg" xmlns:xlink="http://www.w3.org/1999/xlink">
    <!-- Generator: Sketch 41.2 (35397) - http://www.bohemiancoding.com/sketch -->
    <title>10n</title>
    <desc>Created with Sketch.</desc>
    <defs></defs>
    <g id="Page-1" stroke="none" stroke-width="1" fill="none" fill-rule="evenodd">
        <g id="10n" transform="translate(5.000000, 6.000000)">
            <g id="Cloud-+-Light-Rain-+-Moon">
                <g id="Page-1">
                    <g id="Cloud-+-Light-Rain-+-Moon">
                        <g id="Cloud" opacity="0.99000001" transform="translate(0.000000, 25.722983)" stroke="#FFFFFF" stroke-width="9.44055944">
                            <path d="M112.310539,34.5317001 C106.238531,14.7243362 87.8348349,0.324747 66.0742857,0.324747 C44.0460549,0.324747 25.457772,15.0807807 19.6195671,35.2651035 C8.4197544,37.5812066 0,47.5179358 0,59.4249248 C0,72.990274 10.9284226,83.9983241 24.4457143,84.0937433 L128.605714,84.0943683 C138.389045,84.0943683 146.32,76.1484071 146.32,66.3465672 C146.32,56.5447273 138.389045,48.5987661 128.605714,48.5987661 C128.509759,40.7410591 122.122508,34.4005252 114.257143,34.4005252 C113.596911,34.4005252 112.947095,34.4452019 112.31054,34.5317023 L112.310539,34.5317001 Z" id="Cloud-2"></path>
                        </g>
                        <g id="Light-Rain" transform="translate(39.414286, 118.721461)" fill="#FFFFFF">
                            <ellipse id="Oval-24" cx="5.41946429" cy="5.4414003" rx="5.41946429" ry="5.4414003"></ellipse>
                            <ellipse id="Oval-24-Copy" cx="31.03875" cy="5.4414003" rx="5.41946429" ry="5.4414003"></ellipse>
                            <ellipse id="Oval-24-Copy-2" cx="56.6580357" cy="5.4414003" rx="5.41946429" ry="5.4414003"></ellipse>
                            <ellipse id="Oval-24" cx="5.41946429" cy="20.281583" rx="5.41946429" ry="5.4414003"></ellipse>
                            <ellipse id="Oval-24-Copy" cx="31.03875" cy="20.281583" rx="5.41946429" ry="5.4414003"></ellipse>
                            <ellipse id="Oval-24-Copy-2" cx="56.6580357" cy="20.281583" rx="5.41946429" ry="5.4414003"></ellipse>
                        </g>
                        <g id="Moon" transform="translate(119.228214, 0.000000)" stroke="#FFFFFF" stroke-width="9.44055944">
                            <path d="M53.1480781,38.155082 C49.0390747,48.2725645 39.1439222,55.4033486 27.59,55.4033486 C12.3524637,55.4033486 0,43.0008865 0,27.7016743 C0,14.0693715 9.80740019,2.73698141 22.7244219,0.429392853 C21.4143922,3.6550421 20.6925,7.18427666 20.6925,10.8828006 C20.6925,26.1820129 33.0449637,38.5844749 48.2825,38.5844749 C49.9426896,38.5844749 51.5686306,38.4372457 53.1480781,38.155082 L53.1480781,38.155082 Z" id="Oval-31"></path>
                        </g>
                    </g>
                </g>
            </g>
        </g>
    </g>
</svg>