<?xml version="1.0" encoding="UTF-8"?>
<svg width="196px" height="150px" viewBox="0 0 196 150" version="1.1" xmlns="http://www.w3.org/2000/svg" xmlns:xlink="http://www.w3.org/1999/xlink">
    <!-- Generator: Sketch 41.2 (35397) - http://www.bohemiancoding.com/sketch -->
    <title>11d</title>
    <desc>Created with Sketch.</desc>
    <defs></defs>
    <g id="Page-1" stroke="none" stroke-width="1" fill="none" fill-rule="evenodd">
        <g id="11d" transform="translate(5.000000, 5.000000)" stroke-width="9.44055944" stroke="#FFFFFF">
            <g id="Cloud-+-Sunny-+-Lightening">
                <g id="Page-1">
                    <g id="Cloud-+-Sunny-+-Lightening">
                        <g id="Cloud" opacity="0.99000001">
                            <path d="M142.283165,44.1258912 C134.590704,18.8153047 111.275562,0.414973799 83.7077144,0.414973799 C55.8007482,0.414973799 32.2517585,19.2707827 24.8554956,45.0630613 C10.6667577,48.0226641 0,60.7201863 0,75.9353799 C0,93.2696879 13.8449211,107.336184 30.9696102,107.458114 L162.927079,107.458913 C175.321314,107.458913 185.368826,97.3052679 185.368826,84.7801121 C185.368826,72.2549564 175.321314,62.1013115 162.927079,62.1013115 C162.805517,52.0604412 154.713682,43.958271 144.749265,43.958271 C143.912835,43.958271 143.0896,44.0153606 142.283167,44.1258941 L142.283165,44.1258912 Z" id="Cloud-2"></path>
                        </g>
                        <g id="Lightening" transform="translate(48.684564, 125.158028)">
                            <polyline id="Line" points="0.624161074 0.632111252 10.2901243 10.4211935 16.340136 16.5482665"></polyline>
                            <polyline id="Line-Copy" points="39.3221477 0.632111252 47.9640966 10.6483585 53.3725983 6.95162941 61.2797333 16.5482665"></polyline>
                            <path d="M78.0201342,0.632111252 L93.7361091,16.5482665" id="Line-Copy-2"></path>
                        </g>
                    </g>
                </g>
            </g>
        </g>
    </g>
</svg>