<?xml version="1.0" encoding="UTF-8"?>
<svg width="218px" height="149px" viewBox="0 0 218 149" version="1.1" xmlns="http://www.w3.org/2000/svg" xmlns:xlink="http://www.w3.org/1999/xlink">
    <!-- Generator: Sketch 41.2 (35397) - http://www.bohemiancoding.com/sketch -->
    <title>11n</title>
    <desc>Created with Sketch.</desc>
    <defs></defs>
    <g id="Page-1" stroke="none" stroke-width="1" fill="none" fill-rule="evenodd">
        <g id="11n" transform="translate(5.000000, 5.000000)">
            <g id="Cloudy-2-Light-Rain">
                <g id="Page-1">
                    <g id="Cloudy-2-Light-Rain">
                        <path d="M123.59419,45.0315424 C116.912138,22.3611876 96.6594531,5.88025659 72.7126581,5.88025659 C48.4712879,5.88025659 28.0154715,22.7691532 21.590712,45.8709532 C9.26567297,48.5218299 0,59.8948314 0,73.5228773 C0,89.0489857 12.0263827,101.648159 26.9017341,101.75737 L141.526514,101.758085 C152.292758,101.758085 161.020524,92.663601 161.020524,81.444986 C161.020524,70.226371 152.292758,61.1318867 141.526514,61.1318867 C141.420918,52.138413 134.391952,44.8814073 125.736366,44.8814073 C125.009802,44.8814073 124.294699,44.9325416 123.594191,45.031545 L123.59419,45.0315424 Z" id="Cloudy" stroke="#FFFFFF" stroke-width="9.44055944"></path>
                        <path d="M175.47851,72.7207847 L193.226089,72.7208955 C201.385495,72.7208955 208,65.8229604 208,57.3139262 C208,48.8048919 201.385495,41.9069567 193.226089,41.9069567 C193.146061,35.0856356 187.819024,29.5813812 181.259222,29.5813812 C180.708581,29.5813812 180.166626,29.6201653 179.635733,29.6952569 C174.57161,12.5003672 159.222724,0 141.074183,0 C133.01924,0 125.515797,2.46243294 119.21828,6.70483053" id="Cloudy" stroke="#FFFFFF" stroke-width="9.44055944"></path>
                        <g id="Rain" transform="translate(46.347826, 111.724875)" fill="#FFFFFF">
                            <ellipse id="Oval-24" cx="5.72282609" cy="5.9537598" rx="5.72282609" ry="5.9537598"></ellipse>
                            <ellipse id="Oval-24-Copy" cx="38.7880435" cy="5.9537598" rx="5.72282609" ry="5.9537598"></ellipse>
                            <ellipse id="Oval-24-Copy-2" cx="71.8532609" cy="5.9537598" rx="5.72282609" ry="5.9537598"></ellipse>
                            <ellipse id="Oval-24" cx="5.72282609" cy="25.7996258" rx="5.72282609" ry="5.9537598"></ellipse>
                            <ellipse id="Oval-24-Copy" cx="38.7880435" cy="25.7996258" rx="5.72282609" ry="5.9537598"></ellipse>
                            <ellipse id="Oval-24-Copy-2" cx="71.8532609" cy="25.7996258" rx="5.72282609" ry="5.9537598"></ellipse>
                        </g>
                    </g>
                </g>
            </g>
        </g>
    </g>
</svg>