<?xml version="1.0" encoding="UTF-8"?>
<svg width="188px" height="150px" viewBox="0 0 188 150" version="1.1" xmlns="http://www.w3.org/2000/svg" xmlns:xlink="http://www.w3.org/1999/xlink">
    <!-- Generator: Sketch 41.2 (35397) - http://www.bohemiancoding.com/sketch -->
    <title>13d</title>
    <desc>Created with Sketch.</desc>
    <defs></defs>
    <g id="Page-1" stroke="none" stroke-width="1" fill="none" fill-rule="evenodd">
        <g id="13d" transform="translate(5.000000, 5.000000)" stroke="#FFFFFF">
            <g id="Cloud-+-Snow">
                <g id="Page-1">
                    <g id="Cloud-+-Snow">
                        <g id="Cloud" opacity="0.99000001" stroke-width="9.44055944">
                            <path d="M136.163459,42.7141712 C128.801856,18.2133465 106.489516,0.401697539 80.1073826,0.401697539 C53.4007161,0.401697539 30.8645861,18.6542524 23.786442,43.6213585 C10.2079724,46.4862747 0,58.777565 0,73.5059788 C0,90.2857101 13.2494406,103.902177 29.6375839,104.020206 L155.919463,104.020979 C167.780613,104.020979 177.395973,94.1921798 177.395973,82.0677414 C177.395973,69.9433031 167.780613,60.1145038 155.919463,60.1145038 C155.803129,50.3948712 148.05933,42.5519138 138.52349,42.5519138 C137.723036,42.5519138 136.935209,42.6071768 136.163461,42.714174 L136.163459,42.7141712 Z" id="Cloud-2"></path>
                        </g>
                        <g id="Snow" transform="translate(38.228188, 117.482517)" stroke-width="5.24475524">
                            <path d="M0.597315436,7.95454545 L17.3221477,7.95454545 M13.1409396,0.535796362 L4.77852349,15.3732945 M13.1409396,15.3732945 L4.77852349,0.535796362" id="Line"></path>
                            <path d="M43.7797741,18.0448135 L60.5046063,18.0448135 M56.3233983,10.6260645 L47.9609822,25.4635627 M56.3233983,25.4635627 L47.9609822,10.6260645" id="Line-Copy-3"></path>
                            <path d="M82.007962,8.2546038 L98.7327943,8.2546038 M94.5515862,0.835854703 L86.1891701,15.6733529 M94.5515862,15.6733529 L86.1891701,0.835854703" id="Line-Copy-4"></path>
                        </g>
                    </g>
                </g>
            </g>
        </g>
    </g>
</svg>