<?xml version="1.0" encoding="UTF-8"?>
<svg width="190px" height="164px" viewBox="0 0 190 164" version="1.1" xmlns="http://www.w3.org/2000/svg" xmlns:xlink="http://www.w3.org/1999/xlink">
    <!-- Generator: Sketch 41.2 (35397) - http://www.bohemiancoding.com/sketch -->
    <title>50d</title>
    <desc>Created with Sketch.</desc>
    <defs></defs>
    <g id="Page-1" stroke="none" stroke-width="1" fill="none" fill-rule="evenodd">
        <g id="50d" transform="translate(5.000000, 2.000000)" stroke-width="10.4895105" stroke="#FFFFFF">
            <g id="Fog">
                <g id="Page-1">
                    <g id="Fog">
                        <path d="M95,105.023054 C95,105.023054 100.594583,90.8181552 119.073825,84.0115271 C137.553067,77.2048989 139.392363,91.5412739 156.440433,85.2920497 C173.488503,79.0428254 180.106134,63 180.106134,63" id="Line-Copy-5"></path>
                        <path d="M95,139.023054 C95,139.023054 100.594583,124.818155 119.073825,118.011527 C137.553067,111.204899 139.392363,125.541274 156.440433,119.29205 C173.488503,113.042825 180.106134,97 180.106134,97" id="Line-Copy-5"></path>
                        <path d="M0.691680509,63.3936686 C0.691680509,63.3936686 6.28626323,49.1887697 24.7655055,42.3821415 C43.2447477,35.5755133 45.0840438,49.9118883 62.1321138,43.6626641 C79.1801837,37.4134399 85.7978149,21.3706144 85.7978149,21.3706144" id="Line-Copy-5"></path>
                        <path d="M95,42.0230541 C95,42.0230541 100.594583,27.8181552 119.073825,21.0115271 C137.553067,14.2048989 139.392363,28.5412739 156.440433,22.2920497 C173.488503,16.0428254 180.106134,0 180.106134,0" id="Line-Copy-5"></path>
                        <path d="M95,74.0230541 C95,74.0230541 100.594583,59.8181552 119.073825,53.0115271 C137.553067,46.2048989 139.392363,60.5412739 156.440433,54.2920497 C173.488503,48.0428254 180.106134,32 180.106134,32" id="Line-Copy-5"></path>
                        <path d="M1,160.023054 C1,160.023054 6.59458272,145.818155 25.073825,139.011527 C43.5530672,132.204899 45.3923633,146.541274 62.4404332,140.29205 C79.4885032,134.042825 86.1061344,118 86.1061344,118" id="Line-Copy-5"></path>
                        <path d="M1,126.023054 C1,126.023054 6.59458272,111.818155 25.073825,105.011527 C43.5530672,98.2048989 45.3923633,112.541274 62.4404332,106.29205 C79.4885032,100.042825 86.1061344,84 86.1061344,84" id="Line-Copy-5"></path>
                        <path d="M1,94.0230541 C1,94.0230541 6.59458272,79.8181552 25.073825,73.0115271 C43.5530672,66.2048989 45.3923633,80.5412739 62.4404332,74.2920497 C79.4885032,68.0428254 86.1061344,52 86.1061344,52" id="Line-Copy-5"></path>
                    </g>
                </g>
            </g>
        </g>
    </g>
</svg>