<?xml version="1.0" encoding="UTF-8"?>
<svg width="134px" height="126px" viewBox="0 0 134 126" version="1.1" xmlns="http://www.w3.org/2000/svg" xmlns:xlink="http://www.w3.org/1999/xlink">
    <!-- Generator: Sketch 41.2 (35397) - http://www.bohemiancoding.com/sketch -->
    <title>50n</title>
    <desc>Created with Sketch.</desc>
    <defs></defs>
    <g id="Page-1" stroke="none" stroke-width="1" fill="none" fill-rule="evenodd">
        <g id="50n" transform="translate(66.500000, 63.500000) scale(-1, 1) translate(-66.500000, -63.500000) translate(5.000000, 6.000000)" stroke-width="10.4895105" stroke="#FFFFFF">
            <g id="Fog">
                <g id="Page-1">
                    <g id="Fog">
                        <path d="M12.8698004,114.363979 C12.8698004,114.363979 -12.8556933,114.363979 9.38214446,94.0115271 C31.6199822,73.6590751 24.4161866,114.345455 46.7487527,95.2920497 C69.0813189,76.2386439 46.7487527,76.2386439 46.7487527,76.2386439" id="Line-Copy-5"></path>
                        <path d="M78.5414537,38.125335 C78.5414537,38.125335 52.81596,38.125335 75.0537978,17.7728831 C97.2916356,-2.57956881 90.08784,38.1068114 112.420406,19.0534057 C134.752972,0 112.420406,0 112.420406,0" id="Line-Copy-5"></path>
                        <path d="M12.5414537,38.125335 C12.5414537,38.125335 -13.18404,38.125335 9.05379782,17.7728831 C31.2916356,-2.57956881 24.08784,38.1068114 46.4204061,19.0534057 C68.7529722,0 46.4204061,0 46.4204061,0" id="Line-Copy-5"></path>
                        <path d="M78.5414537,76.125335 C78.5414537,76.125335 52.81596,76.125335 75.0537978,55.7728831 C97.2916356,35.4204312 90.08784,76.1068114 112.420406,57.0534057 C134.752972,38 112.420406,38 112.420406,38" id="Line-Copy-5"></path>
                        <path d="M78.5414537,114.125335 C78.5414537,114.125335 52.81596,114.125335 75.0537978,93.7728831 C97.2916356,73.4204312 90.08784,114.106811 112.420406,95.0534057 C134.752972,76 112.420406,76 112.420406,76" id="Line-Copy-5"></path>
                        <path d="M12.5414537,76.125335 C12.5414537,76.125335 -13.18404,76.125335 9.05379782,55.7728831 C31.2916356,35.4204312 24.08784,76.1068114 46.4204061,57.0534057 C68.7529722,38 46.4204061,38 46.4204061,38" id="Line-Copy-5"></path>
                    </g>
                </g>
            </g>
        </g>
    </g>
</svg>